HIERARCHY
ROOT Hips
{
	OFFSET 0.000000 121.760803 0.000000
	CHANNELS 6 Xposition Yposition Zposition Xrotation Yrotation Zrotation 
	JOINT Spine
	{
		OFFSET 0.072000 7.257294 -0.789700
		CHANNELS 3 Xrotation Yrotation Zrotation
		JOINT Spine1
		{
			OFFSET 0.000000 12.508769 -0.658067
			CHANNELS 3 Xrotation Yrotation Zrotation
			JOINT Spine1_split
			{
				OFFSET 0.000000 12.508769 -0.658067
				CHANNELS 3 Xrotation Yrotation Zrotation
				JOINT Spine2
				{
					OFFSET 0.000000 12.508769 -0.658067
					CHANNELS 3 Xrotation Yrotation Zrotation
					JOINT Neck
					{
						OFFSET 0.000000 14.033295 7.520400
						CHANNELS 3 Xrotation Yrotation Zrotation
						JOINT Head
						{
							OFFSET 0.000000 8.198502 5.703100
							CHANNELS 3 Xrotation Yrotation Zrotation
							JOINT HeadTop_End
							{
								OFFSET 0.000000 17.760803 13.332701
								CHANNELS 3 Xrotation Yrotation Zrotation
								End Site
								{
									OFFSET 0.000000 0.000000 0.000000
								}
							}
						}
					}
					JOINT LeftShoulder
					{
						OFFSET 6.292450 5.785301 -0.669000
						CHANNELS 3 Xrotation Yrotation Zrotation
						JOINT LeftShoulder_split
						{
							OFFSET 6.292450 5.785301 -0.669000
							CHANNELS 3 Xrotation Yrotation Zrotation
							JOINT LeftArm
							{
								OFFSET 13.907140 -6.093903 1.965100
								CHANNELS 3 Xrotation Yrotation Zrotation
								JOINT LeftForeArm
								{
									OFFSET 34.140198 0.000000 0.000000
									CHANNELS 3 Xrotation Yrotation Zrotation
									JOINT LeftHand
									{
										OFFSET 40.960209 0.000000 0.000000
										CHANNELS 3 Xrotation Yrotation Zrotation
										JOINT LeftHandThumb1
										{
											OFFSET 10.006996 -7.170425 9.573125
											CHANNELS 3 Xrotation Yrotation Zrotation
											JOINT LeftHandThumb2
											{
												OFFSET 1.835007 -1.059448 1.059443
												CHANNELS 3 Xrotation Yrotation Zrotation
												JOINT LeftHandThumb3
												{
													OFFSET 2.112267 -1.219513 1.219518
													CHANNELS 3 Xrotation Yrotation Zrotation
													JOINT LeftHandThumb4
													{
														OFFSET 4.843811 -2.796570 2.796576
														CHANNELS 3 Xrotation Yrotation Zrotation
														End Site
														{
															OFFSET 0.000000 0.000000 0.000000
														}
													}
												}
											}
										}
										JOINT LeftHandIndex1
										{
											OFFSET 18.389847 -0.922348 4.596882
											CHANNELS 3 Xrotation Yrotation Zrotation
											JOINT LeftHandIndex2
											{
												OFFSET 4.711273 0.000000 0.000000
												CHANNELS 3 Xrotation Yrotation Zrotation
												JOINT LeftHandIndex3
												{
													OFFSET 2.886131 0.000000 0.000000
													CHANNELS 3 Xrotation Yrotation Zrotation
													JOINT LeftHandIndex4
													{
														OFFSET 6.145912 0.000000 0.000000
														CHANNELS 3 Xrotation Yrotation Zrotation
														End Site
														{
															OFFSET 0.000000 0.000000 0.000000
														}
													}
												}
											}
										}
										JOINT LeftHandMiddle1
										{
											OFFSET 18.013008 0.000000 0.000000
											CHANNELS 3 Xrotation Yrotation Zrotation
											JOINT LeftHandMiddle2
											{
												OFFSET 4.946693 0.000000 0.000000
												CHANNELS 3 Xrotation Yrotation Zrotation
												JOINT LeftHandMiddle3
												{
													OFFSET 3.342232 0.000000 0.000000
													CHANNELS 3 Xrotation Yrotation Zrotation
													JOINT LeftHandMiddle4
													{
														OFFSET 4.461754 0.000000 0.000000
														CHANNELS 3 Xrotation Yrotation Zrotation
														End Site
														{
															OFFSET 0.000000 0.000000 0.000000
														}
													}
												}
											}
										}
										JOINT LeftHandRing1
										{
											OFFSET 15.849892 -0.102921 -4.126150
											CHANNELS 3 Xrotation Yrotation Zrotation
											JOINT LeftHandRing2
											{
												OFFSET 3.527054 0.000000 0.000000
												CHANNELS 3 Xrotation Yrotation Zrotation
												JOINT LeftHandRing3
												{
													OFFSET 2.961098 0.000000 0.000000
													CHANNELS 3 Xrotation Yrotation Zrotation
													JOINT LeftHandRing4
													{
														OFFSET 4.927200 0.000000 0.000000
														CHANNELS 3 Xrotation Yrotation Zrotation
														End Site
														{
															OFFSET 0.000000 0.000000 0.000000
														}
													}
												}
											}
										}
										JOINT LeftHandPinky1
										{
											OFFSET 12.791824 -0.832031 -6.799156
											CHANNELS 3 Xrotation Yrotation Zrotation
											JOINT LeftHandPinky2
											{
												OFFSET 3.327133 0.000000 0.000000
												CHANNELS 3 Xrotation Yrotation Zrotation
												JOINT LeftHandPinky3
												{
													OFFSET 3.014900 0.000000 0.000000
													CHANNELS 3 Xrotation Yrotation Zrotation
													JOINT LeftHandPinky4
													{
														OFFSET 5.847786 0.000000 0.000000
														CHANNELS 3 Xrotation Yrotation Zrotation
														End Site
														{
															OFFSET 0.000000 0.000000 0.000000
														}
													}
												}
											}
										}
									}
								}
							}
						}
					}
					JOINT RightShoulder
					{
						OFFSET -6.292450 5.785301 -0.669000
						CHANNELS 3 Xrotation Yrotation Zrotation
						JOINT RightShoulder_split
						{
							OFFSET -6.292450 5.785301 -0.669000
							CHANNELS 3 Xrotation Yrotation Zrotation
							JOINT RightArm
							{
								OFFSET -13.907140 -6.093903 1.965100
								CHANNELS 3 Xrotation Yrotation Zrotation
								JOINT RightForeArm
								{
									OFFSET -34.140198 0.000000 0.000000
									CHANNELS 3 Xrotation Yrotation Zrotation
									JOINT RightHand
									{
										OFFSET -40.960209 0.000000 0.000000
										CHANNELS 3 Xrotation Yrotation Zrotation
										JOINT RightHandThumb1
										{
											OFFSET -10.007050 -7.170456 9.573117
											CHANNELS 3 Xrotation Yrotation Zrotation
											JOINT RightHandThumb2
											{
												OFFSET -1.835007 -1.059448 1.059443
												CHANNELS 3 Xrotation Yrotation Zrotation
												JOINT RightHandThumb3
												{
													OFFSET -2.112267 -1.219513 1.219518
													CHANNELS 3 Xrotation Yrotation Zrotation
													JOINT RightHandThumb4
													{
														OFFSET -4.843834 -2.796585 2.796590
														CHANNELS 3 Xrotation Yrotation Zrotation
														End Site
														{
															OFFSET 0.000000 0.000000 0.000000
														}
													}
												}
											}
										}
										JOINT RightHandIndex1
										{
											OFFSET -18.389870 -0.922424 4.596786
											CHANNELS 3 Xrotation Yrotation Zrotation
											JOINT RightHandIndex2
											{
												OFFSET -4.711273 0.000000 0.000000
												CHANNELS 3 Xrotation Yrotation Zrotation
												JOINT RightHandIndex3
												{
													OFFSET -2.886131 0.000000 0.000000
													CHANNELS 3 Xrotation Yrotation Zrotation
													JOINT RightHandIndex4
													{
														OFFSET -6.145920 0.000000 0.000000
														CHANNELS 3 Xrotation Yrotation Zrotation
														End Site
														{
															OFFSET 0.000000 0.000000 0.000000
														}
													}
												}
											}
										}
										JOINT RightHandMiddle1
										{
											OFFSET -18.013008 0.000000 0.000000
											CHANNELS 3 Xrotation Yrotation Zrotation
											JOINT RightHandMiddle2
											{
												OFFSET -4.946693 0.000000 0.000000
												CHANNELS 3 Xrotation Yrotation Zrotation
												JOINT RightHandMiddle3
												{
													OFFSET -3.342232 0.000000 0.000000
													CHANNELS 3 Xrotation Yrotation Zrotation
													JOINT RightHandMiddle4
													{
														OFFSET -4.461754 0.000000 0.000000
														CHANNELS 3 Xrotation Yrotation Zrotation
														End Site
														{
															OFFSET 0.000000 0.000000 0.000000
														}
													}
												}
											}
										}
										JOINT RightHandRing1
										{
											OFFSET -15.849876 -0.102936 -4.126237
											CHANNELS 3 Xrotation Yrotation Zrotation
											JOINT RightHandRing2
											{
												OFFSET -3.527054 0.000000 0.000000
												CHANNELS 3 Xrotation Yrotation Zrotation
												JOINT RightHandRing3
												{
													OFFSET -2.961098 0.000000 0.000000
													CHANNELS 3 Xrotation Yrotation Zrotation
													JOINT RightHandRing4
													{
														OFFSET -4.927200 0.000000 0.000000
														CHANNELS 3 Xrotation Yrotation Zrotation
														End Site
														{
															OFFSET 0.000000 0.000000 0.000000
														}
													}
												}
											}
										}
										JOINT RightHandPinky1
										{
											OFFSET -12.791786 -0.832077 -6.799222
											CHANNELS 3 Xrotation Yrotation Zrotation
											JOINT RightHandPinky2
											{
												OFFSET -3.327133 0.000000 0.000000
												CHANNELS 3 Xrotation Yrotation Zrotation
												JOINT RightHandPinky3
												{
													OFFSET -3.014900 0.000000 0.000000
													CHANNELS 3 Xrotation Yrotation Zrotation
													JOINT RightHandPinky4
													{
														OFFSET -5.847786 0.000000 0.000000
														CHANNELS 3 Xrotation Yrotation Zrotation
														End Site
														{
															OFFSET 0.000000 0.000000 0.000000
														}
													}
												}
											}
										}
									}
								}
							}
						}
					}
				}
			}
		}
	}
	JOINT LeftUpLeg
	{
		OFFSET 13.026900 -6.336304 -1.092800
		CHANNELS 3 Xrotation Yrotation Zrotation
		JOINT LeftLeg
		{
			OFFSET 0.524474 -46.096886 9.782700
			CHANNELS 3 Xrotation Yrotation Zrotation
			JOINT LeftFoot
			{
				OFFSET -0.524474 -53.427422 -12.948200
				CHANNELS 3 Xrotation Yrotation Zrotation
				JOINT LeftToeBase
				{
					OFFSET 0.192200 -14.009700 16.364100
					CHANNELS 3 Xrotation Yrotation Zrotation
					JOINT LeftToe_End
					{
						OFFSET -1.784700 -0.561700 9.474800
						CHANNELS 3 Xrotation Yrotation Zrotation
						End Site
						{
							OFFSET 0.000000 0.000000 0.000000
						}
					}
				}
			}
		}
	}
	JOINT RightUpLeg
	{
		OFFSET -12.883000 -6.336304 -1.092800
		CHANNELS 3 Xrotation Yrotation Zrotation
		JOINT RightLeg
		{
			OFFSET -0.524587 -46.096825 9.782800
			CHANNELS 3 Xrotation Yrotation Zrotation
			JOINT RightFoot
			{
				OFFSET 0.524587 -53.427383 -12.948300
				CHANNELS 3 Xrotation Yrotation Zrotation
				JOINT RightToeBase
				{
					OFFSET -0.192200 -14.009700 16.364100
					CHANNELS 3 Xrotation Yrotation Zrotation
					JOINT RightToe_End
					{
						OFFSET 1.784700 -0.561700 9.474800
						CHANNELS 3 Xrotation Yrotation Zrotation
						End Site
						{
							OFFSET 0.000000 0.000000 0.000000
						}
					}
				}
			}
		}
	}
}
MOTION
Frames: 5
Frame Time: 0.016667
18.005373 14.254868 -8.236549 -112.268926 71.783103 30.436737 15.299318 -8.852414 -7.232956 10.269403 -4.988681 -4.175170 0.000000 0.000000 0.000000 10.075513 -5.450791 -4.055230 -3.272617 7.228370 -14.282606 -28.199344 11.664151 -14.767923 0.000000 -0.000000 -0.000001 4.010588 -4.908956 30.425935 0.000000 0.000000 0.000000 -98.272161 29.592939 -48.772281 0.000003 -29.022082 0.000001 0.131373 16.629450 8.536184 -1.540037 3.690183 6.142353 3.939052 7.948712 0.746815 -0.579467 1.575001 2.538718 0.000001 0.000001 -0.000000 -0.000001 -0.000001 0.000008 -0.000001 0.000012 -0.000013 0.000001 -0.000006 -0.000014 0.000000 0.000000 0.000001 0.000000 -0.001934 0.015990 -0.000001 0.001938 -0.016004 0.000000 -0.000002 -0.000011 -0.000000 0.000002 -0.000000 -0.000002 0.000000 0.000010 0.000001 0.000002 -0.000021 -0.000001 -0.000001 -0.000010 0.000001 -0.000001 0.000000 -0.018089 4.054252 0.511075 -0.018091 -4.054249 -0.511086 0.000001 -0.000002 -0.000009 -0.000000 0.000000 -0.000001 5.201619 10.649072 -16.868030 0.000000 0.000000 0.000000 -39.319514 45.122801 97.301243 -0.000059 102.936490 0.000060 5.604806 -5.065556 40.880765 -1.849252 -3.581790 -6.586153 4.637188 -8.634131 -0.225413 -1.273752 0.137311 -2.094884 -0.000001 -0.000001 0.000001 0.000005 -0.000002 -0.000012 -0.000009 0.000000 0.000024 0.000005 -0.000002 0.000000 -0.000000 -0.000001 0.000002 0.000001 -0.000003 0.000000 -0.000003 0.000002 0.000007 -0.000000 -0.000003 0.000016 -0.000000 0.000001 0.000000 0.000003 -0.000002 0.000004 -0.000003 0.000001 0.000009 -0.000001 -0.000004 0.000011 0.000000 -0.000000 0.000001 0.000001 -0.000002 -0.000001 -0.000002 -0.000000 0.000029 0.000001 -0.000001 0.000007 0.000000 -0.000000 0.000002 -98.215436 2.725195 0.724857 86.983805 3.815868 1.025951 8.895357 -0.709155 -4.054285 0.000006 0.000014 0.000004 -0.000001 -0.000001 0.000000 -33.125072 4.650004 9.058338 84.259748 -7.167677 -3.108074 34.449230 -2.891067 7.004756 -15.637626 0.000001 0.000009 -0.000001 0.000000 -0.000002 
18.011646 14.251953 -8.212906 -112.276815 71.712547 30.416861 15.246963 -8.842006 -7.165123 10.226777 -5.010036 -4.150917 0.000000 0.000000 0.000000 10.032179 -5.472376 -4.029274 -3.171010 7.239980 -14.352369 -28.146081 11.710063 -14.821589 0.000001 -0.000000 -0.000000 4.063065 -4.848775 30.216743 0.000000 0.000000 0.000000 -98.229417 29.536170 -48.772817 0.000004 -28.953104 0.000001 0.230756 16.505016 8.705513 -1.540039 3.690191 6.142361 3.939052 7.948702 0.746809 -0.579463 1.575009 2.538715 -0.000001 -0.000002 -0.000004 -0.000001 0.000004 0.000008 0.000001 0.000000 -0.000021 -0.000001 -0.000003 -0.000014 0.000000 -0.000000 0.000000 0.000001 -0.001927 0.015989 -0.000001 0.001935 -0.015999 -0.000001 0.000003 -0.000011 -0.000000 -0.000000 0.000000 -0.000000 0.000002 0.000007 0.000001 -0.000000 -0.000021 -0.000001 -0.000003 -0.000014 -0.000000 -0.000001 -0.000000 -0.018090 4.054261 0.511075 -0.018088 -4.054252 -0.511085 0.000000 -0.000000 -0.000011 0.000000 0.000000 -0.000001 5.188621 10.588841 -17.043100 0.000000 0.000000 0.000000 -39.537807 45.274192 97.619789 -0.000122 102.793835 0.000127 6.308721 -5.800633 39.941304 -1.849252 -3.581793 -6.586143 4.637202 -8.634133 -0.225400 -1.273765 0.137312 -2.094862 -0.000000 -0.000002 -0.000002 0.000001 0.000000 -0.000011 -0.000000 -0.000005 0.000019 0.000002 0.000002 -0.000003 -0.000000 0.000001 -0.000000 0.000003 0.000002 -0.000017 -0.000004 -0.000006 0.000027 0.000003 -0.000000 0.000011 -0.000000 0.000000 -0.000002 0.000000 0.000003 0.000001 0.000002 -0.000003 0.000024 -0.000004 -0.000002 -0.000002 0.000001 -0.000000 -0.000001 0.000003 -0.000000 -0.000015 -0.000001 -0.000003 0.000012 0.000000 0.000000 0.000011 0.000001 -0.000001 0.000001 -98.030932 2.709837 0.785017 87.064182 3.381362 0.927910 7.910810 -0.636030 -4.209160 -0.000012 0.000014 0.000003 0.000001 -0.000002 -0.000000 -33.104435 4.628058 9.068746 84.284828 -7.182765 -3.121529 34.432251 -2.856098 6.935669 -15.615914 0.000006 -0.000012 -0.000001 -0.000000 0.000002 
18.019665 14.252312 -8.189552 -112.291179 71.643917 30.401882 15.196676 -8.832178 -7.097209 10.185748 -5.031183 -4.126518 0.000000 0.000000 0.000000 9.990490 -5.493609 -4.003246 -3.062558 7.250383 -14.443436 -28.110472 11.751719 -14.847711 0.000001 -0.000000 -0.000002 4.107880 -4.790348 29.995049 0.000000 0.000000 0.000000 -98.160228 29.449515 -48.783544 0.000001 -28.883012 0.000001 0.431177 16.400614 8.843815 -1.540037 3.690195 6.142353 3.939052 7.948709 0.746808 -0.579468 1.574998 2.538715 -0.000002 -0.000001 -0.000001 0.000000 0.000008 0.000013 -0.000001 -0.000001 -0.000016 -0.000000 0.000006 -0.000013 -0.000000 -0.000003 -0.000000 0.000000 -0.001930 0.015992 -0.000000 0.001939 -0.016002 0.000000 -0.000001 -0.000010 0.000000 -0.000001 -0.000000 0.000000 0.000005 0.000012 -0.000001 0.000002 -0.000019 -0.000000 0.000003 -0.000014 0.000000 0.000002 -0.000000 -0.018091 4.054252 0.511077 -0.018089 -4.054256 -0.511091 0.000001 -0.000000 -0.000008 0.000000 0.000000 0.000000 5.169987 10.526242 -17.181302 0.000000 0.000000 0.000000 -39.744683 45.430013 97.916615 -0.000188 102.663515 0.000194 6.837459 -6.419682 39.016103 -1.849251 -3.581793 -6.586133 4.637196 -8.634131 -0.225393 -1.273759 0.137312 -2.094870 -0.000001 0.000002 -0.000002 -0.000000 0.000000 -0.000001 0.000001 -0.000006 0.000026 0.000002 -0.000001 -0.000009 0.000000 0.000000 -0.000000 -0.000005 0.000000 0.000011 0.000002 -0.000005 0.000012 0.000006 0.000001 -0.000001 0.000000 0.000001 -0.000001 -0.000002 0.000002 0.000004 0.000001 -0.000003 0.000019 0.000002 0.000000 0.000010 -0.000000 -0.000001 -0.000001 -0.000001 0.000003 0.000006 -0.000001 -0.000007 0.000026 0.000005 -0.000002 -0.000013 -0.000000 0.000001 -0.000002 -97.849188 2.688507 0.849166 87.143836 2.960093 0.830930 6.968974 -0.563967 -4.355229 0.000007 -0.000015 0.000004 -0.000001 -0.000002 0.000000 -33.078657 4.600841 9.081215 84.308092 -7.185721 -3.132758 34.414038 -2.837572 6.870869 -15.555177 0.000009 -0.000035 0.000002 0.000000 0.000000 
18.029036 14.255455 -8.166481 -112.312864 71.577978 30.392279 15.148545 -8.822066 -7.030599 10.146132 -5.051348 -4.102142 0.000000 0.000000 0.000000 9.950384 -5.513613 -3.977272 -2.944878 7.257591 -14.552609 -28.093680 11.789443 -14.848534 -0.000000 0.000000 0.000003 4.142346 -4.736912 29.766661 0.000000 0.000000 0.000000 -98.061074 29.336226 -48.805499 0.000004 -28.810151 0.000001 0.727786 16.318191 8.949749 -1.540038 3.690181 6.142353 3.939054 7.948714 0.746803 -0.579467 1.575010 2.538717 -0.000000 -0.000001 0.000000 -0.000000 -0.000003 0.000011 0.000000 0.000008 -0.000012 -0.000004 -0.000002 -0.000012 -0.000000 0.000002 0.000000 -0.000001 -0.001937 0.015992 -0.000001 0.001934 -0.015999 -0.000001 -0.000003 -0.000013 -0.000001 0.000001 -0.000000 -0.000001 -0.000000 0.000014 -0.000000 0.000005 -0.000017 -0.000001 0.000001 -0.000010 0.000000 0.000000 -0.000001 -0.018091 4.054252 0.511080 -0.018088 -4.054246 -0.511082 -0.000000 -0.000005 -0.000013 -0.000000 -0.000000 0.000000 5.149339 10.461789 -17.293233 0.000000 0.000000 0.000000 -39.931584 45.580502 98.183751 -0.000200 102.561690 0.000191 7.264736 -6.997017 38.122790 -1.849258 -3.581791 -6.586136 4.637196 -8.634132 -0.225425 -1.273765 0.137314 -2.094853 0.000001 -0.000001 -0.000002 -0.000003 -0.000003 -0.000001 0.000004 -0.000004 0.000010 -0.000004 0.000001 0.000010 -0.000000 0.000003 0.000001 -0.000003 -0.000001 -0.000010 0.000004 -0.000002 0.000012 0.000000 -0.000003 0.000011 0.000001 0.000001 0.000000 -0.000001 -0.000002 -0.000009 0.000002 -0.000001 0.000015 -0.000000 0.000000 0.000016 0.000000 -0.000000 -0.000001 -0.000002 -0.000003 -0.000001 -0.000001 -0.000001 0.000046 -0.000002 0.000001 0.000023 0.000000 0.000002 0.000001 -97.670715 2.661692 0.916334 87.220430 2.556528 0.735340 6.072290 -0.493957 -4.487655 0.000021 -0.000002 0.000021 -0.000000 -0.000001 -0.000000 -33.048434 4.569145 9.093549 84.330174 -7.186420 -3.142351 34.393745 -2.822706 6.806402 -15.522836 -0.000002 0.000003 0.000000 0.000001 -0.000002 
18.039780 14.261505 -8.143936 -112.342733 71.515093 30.388201 15.102527 -8.811210 -6.966526 10.107555 -5.069774 -4.078095 0.000000 0.000000 0.000000 9.911564 -5.531530 -3.951646 -2.814092 7.259187 -14.677872 -28.098666 11.824075 -14.824897 -0.000001 -0.000000 -0.000001 4.162941 -4.692300 29.537054 0.000000 0.000000 0.000000 -97.926082 29.197092 -48.839636 0.000003 -28.731495 0.000000 1.123761 16.261951 9.017419 -1.540038 3.690186 6.142354 3.939049 7.948715 0.746814 -0.579466 1.574995 2.538714 0.000001 -0.000002 0.000001 0.000000 -0.000001 0.000005 -0.000002 0.000007 -0.000022 -0.000001 0.000004 -0.000009 -0.000000 0.000000 -0.000002 -0.000000 -0.001932 0.015987 0.000000 0.001931 -0.015998 0.000001 -0.000002 -0.000006 0.000001 0.000000 -0.000001 -0.000001 0.000003 0.000008 0.000001 0.000004 -0.000017 0.000000 0.000002 -0.000008 -0.000000 -0.000001 0.000001 -0.018092 4.054258 0.511072 -0.018089 -4.054253 -0.511079 0.000000 -0.000001 -0.000009 -0.000000 0.000001 0.000000 5.128153 10.398799 -17.376824 0.000000 0.000000 0.000000 -40.082890 45.719039 98.404632 -0.000122 102.501728 0.000132 7.610472 -7.564150 37.288028 -1.849249 -3.581789 -6.586140 4.637185 -8.634132 -0.225412 -1.273759 0.137308 -2.094879 -0.000002 -0.000001 -0.000001 -0.000002 0.000000 0.000005 -0.000001 -0.000002 0.000020 0.000001 0.000002 -0.000011 -0.000001 -0.000000 0.000001 -0.000005 0.000001 0.000006 0.000003 -0.000001 0.000021 0.000000 0.000001 -0.000001 -0.000000 -0.000002 -0.000002 -0.000002 0.000000 0.000003 0.000006 -0.000001 0.000045 -0.000006 -0.000002 -0.000001 -0.000000 0.000002 0.000004 0.000000 -0.000000 0.000001 -0.000002 0.000001 0.000033 0.000002 0.000002 -0.000011 -0.000000 0.000002 0.000004 -97.497583 2.629704 0.986892 87.293772 2.179749 0.641604 5.230419 -0.428374 -4.596743 -0.000002 0.000001 0.000002 0.000000 0.000001 0.000000 -33.013163 4.534166 9.106620 84.349790 -7.184726 -3.149235 34.372439 -2.812185 6.744163 -15.489614 0.000000 0.000023 -0.000000 0.000000 0.000000 
